<svg width="19" height="19" viewBox="0 0 19 19" fill="none" xmlns="http://www.w3.org/2000/svg">
<path d="M9.24999 17.5364C4.67895 17.5364 0.963531 13.821 0.963531 9.24999C0.963531 4.67895 4.67895 0.963531 9.24999 0.963531C13.821 0.963531 17.5364 4.67895 17.5364 9.24999C17.5364 13.821 13.821 17.5364 9.24999 17.5364ZM9.24999 2.11978C5.31874 2.11978 2.11978 5.31874 2.11978 9.24999C2.11978 13.1812 5.31874 16.3802 9.24999 16.3802C13.1812 16.3802 16.3802 13.1812 16.3802 9.24999C16.3802 5.31874 13.1812 2.11978 9.24999 2.11978Z" fill="#A4A9B2"/>
<path d="M7.06854 12.0096C6.92208 12.0096 6.77562 11.9556 6.66 11.84C6.43645 11.6165 6.43645 11.2465 6.66 11.0229L11.0229 6.66C11.2465 6.43645 11.6165 6.43645 11.84 6.66C12.0635 6.88354 12.0635 7.25354 11.84 7.47708L7.47708 11.84C7.36916 11.9556 7.215 12.0096 7.06854 12.0096Z" fill="#A4A9B2"/>
<path d="M11.4315 12.0096C11.285 12.0096 11.1385 11.9556 11.0229 11.84L6.66 7.47708C6.43645 7.25354 6.43645 6.88354 6.66 6.66C6.88354 6.43645 7.25354 6.43645 7.47708 6.66L11.84 11.0229C12.0635 11.2465 12.0635 11.6165 11.84 11.84C11.7244 11.9556 11.5779 12.0096 11.4315 12.0096Z" fill="#A4A9B2"/>
</svg>
